<svg width="373" height="55" viewBox="0 0 373 55" fill="none" xmlns="http://www.w3.org/2000/svg">
<path d="M7.46094 24.082V54H0.957031V15.9609H7.10938L7.46094 24.082ZM5.91406 33.5391L3.20703 33.4336C3.23047 30.832 3.61719 28.4297 4.36719 26.2266C5.11719 24 6.17188 22.0664 7.53125 20.4258C8.89062 18.7852 10.5078 17.5195 12.3828 16.6289C14.2812 15.7148 16.3789 15.2578 18.6758 15.2578C20.5508 15.2578 22.2383 15.5156 23.7383 16.0312C25.2383 16.5234 26.5156 17.3203 27.5703 18.4219C28.6484 19.5234 29.4688 20.9531 30.0312 22.7109C30.5938 24.4453 30.875 26.5664 30.875 29.0742V54H24.3359V29.0039C24.3359 27.0117 24.043 25.418 23.457 24.2227C22.8711 23.0039 22.0156 22.125 20.8906 21.5859C19.7656 21.0234 18.3828 20.7422 16.7422 20.7422C15.125 20.7422 13.6484 21.082 12.3125 21.7617C11 22.4414 9.86328 23.3789 8.90234 24.5742C7.96484 25.7695 7.22656 27.1406 6.6875 28.6875C6.17188 30.2109 5.91406 31.8281 5.91406 33.5391ZM56.5391 54.7031C53.8906 54.7031 51.4883 54.2578 49.332 53.3672C47.1992 52.4531 45.3594 51.1758 43.8125 49.5352C42.2891 47.8945 41.1172 45.9492 40.2969 43.6992C39.4766 41.4492 39.0664 38.9883 39.0664 36.3164V34.8398C39.0664 31.7461 39.5234 28.9922 40.4375 26.5781C41.3516 24.1406 42.5938 22.0781 44.1641 20.3906C45.7344 18.7031 47.5156 17.4258 49.5078 16.5586C51.5 15.6914 53.5625 15.2578 55.6953 15.2578C58.4141 15.2578 60.7578 15.7266 62.7266 16.6641C64.7188 17.6016 66.3477 18.9141 67.6133 20.6016C68.8789 22.2656 69.8164 24.2344 70.4258 26.5078C71.0352 28.7578 71.3398 31.2188 71.3398 33.8906V36.8086H42.9336V31.5H64.8359V31.0078C64.7422 29.3203 64.3906 27.6797 63.7812 26.0859C63.1953 24.4922 62.2578 23.1797 60.9688 22.1484C59.6797 21.1172 57.9219 20.6016 55.6953 20.6016C54.2188 20.6016 52.8594 20.918 51.6172 21.5508C50.375 22.1602 49.3086 23.0742 48.418 24.293C47.5273 25.5117 46.8359 27 46.3438 28.7578C45.8516 30.5156 45.6055 32.543 45.6055 34.8398V36.3164C45.6055 38.1211 45.8516 39.8203 46.3438 41.4141C46.8594 42.9844 47.5977 44.3672 48.5586 45.5625C49.543 46.7578 50.7266 47.6953 52.1094 48.375C53.5156 49.0547 55.1094 49.3945 56.8906 49.3945C59.1875 49.3945 61.1328 48.9258 62.7266 47.9883C64.3203 47.0508 65.7148 45.7969 66.9102 44.2266L70.8477 47.3555C70.0273 48.5977 68.9844 49.7812 67.7188 50.9062C66.4531 52.0312 64.8945 52.9453 63.043 53.6484C61.2148 54.3516 59.0469 54.7031 56.5391 54.7031ZM83.3281 15.9609L91.6602 29.8125L100.098 15.9609H107.727L95.2812 34.7344L108.113 54H100.59L91.8008 39.7266L83.0117 54H75.4531L88.25 34.7344L75.8398 15.9609H83.3281ZM136.801 43.9102C136.801 42.9727 136.59 42.1055 136.168 41.3086C135.77 40.4883 134.938 39.75 133.672 39.0938C132.43 38.4141 130.555 37.8281 128.047 37.3359C125.938 36.8906 124.027 36.3633 122.316 35.7539C120.629 35.1445 119.188 34.4062 117.992 33.5391C116.82 32.6719 115.918 31.6523 115.285 30.4805C114.652 29.3086 114.336 27.9375 114.336 26.3672C114.336 24.8672 114.664 23.4492 115.32 22.1133C116 20.7773 116.949 19.5938 118.168 18.5625C119.41 17.5313 120.898 16.7227 122.633 16.1367C124.367 15.5508 126.301 15.2578 128.434 15.2578C131.48 15.2578 134.082 15.7969 136.238 16.875C138.395 17.9531 140.047 19.3945 141.195 21.1992C142.344 22.9805 142.918 24.9609 142.918 27.1406H136.414C136.414 26.0859 136.098 25.0664 135.465 24.082C134.855 23.0742 133.953 22.2422 132.758 21.5859C131.586 20.9297 130.145 20.6016 128.434 20.6016C126.629 20.6016 125.164 20.8828 124.039 21.4453C122.938 21.9844 122.129 22.6758 121.613 23.5195C121.121 24.3633 120.875 25.2539 120.875 26.1914C120.875 26.8945 120.992 27.5273 121.227 28.0898C121.484 28.6289 121.93 29.1328 122.562 29.6016C123.195 30.0469 124.086 30.4688 125.234 30.8672C126.383 31.2656 127.848 31.6641 129.629 32.0625C132.746 32.7656 135.312 33.6094 137.328 34.5938C139.344 35.5781 140.844 36.7852 141.828 38.2148C142.812 39.6445 143.305 41.3789 143.305 43.418C143.305 45.082 142.953 46.6055 142.25 47.9883C141.57 49.3711 140.574 50.5664 139.262 51.5742C137.973 52.5586 136.426 53.332 134.621 53.8945C132.84 54.4336 130.836 54.7031 128.609 54.7031C125.258 54.7031 122.422 54.1055 120.102 52.9102C117.781 51.7148 116.023 50.168 114.828 48.2695C113.633 46.3711 113.035 44.3672 113.035 42.2578H119.574C119.668 44.0391 120.184 45.457 121.121 46.5117C122.059 47.543 123.207 48.2812 124.566 48.7266C125.926 49.1484 127.273 49.3594 128.609 49.3594C130.391 49.3594 131.879 49.125 133.074 48.6562C134.293 48.1875 135.219 47.543 135.852 46.7227C136.484 45.9023 136.801 44.9648 136.801 43.9102Z" fill="white" fill-opacity="0.87"/>
<path d="M174.277 47.4961V27.9141C174.277 26.4141 173.973 25.1133 173.363 24.0117C172.777 22.8867 171.887 22.0195 170.691 21.4102C169.496 20.8008 168.02 20.4961 166.262 20.4961C164.621 20.4961 163.18 20.7773 161.938 21.3398C160.719 21.9023 159.758 22.6406 159.055 23.5547C158.375 24.4688 158.035 25.4531 158.035 26.5078H151.531C151.531 25.1484 151.883 23.8008 152.586 22.4648C153.289 21.1289 154.297 19.9219 155.609 18.8438C156.945 17.7422 158.539 16.875 160.391 16.2422C162.266 15.5859 164.352 15.2578 166.648 15.2578C169.414 15.2578 171.852 15.7266 173.961 16.6641C176.094 17.6016 177.758 19.0195 178.953 20.918C180.172 22.793 180.781 25.1484 180.781 27.9844V45.7031C180.781 46.9688 180.887 48.3164 181.098 49.7461C181.332 51.1758 181.672 52.4062 182.117 53.4375V54H175.332C175.004 53.25 174.746 52.2539 174.559 51.0117C174.371 49.7461 174.277 48.5742 174.277 47.4961ZM175.402 30.9375L175.473 35.5078H168.898C167.047 35.5078 165.395 35.6602 163.941 35.9648C162.488 36.2461 161.27 36.6797 160.285 37.2656C159.301 37.8516 158.551 38.5898 158.035 39.4805C157.52 40.3477 157.262 41.3672 157.262 42.5391C157.262 43.7344 157.531 44.8242 158.07 45.8086C158.609 46.793 159.418 47.5781 160.496 48.1641C161.598 48.7266 162.945 49.0078 164.539 49.0078C166.531 49.0078 168.289 48.5859 169.812 47.7422C171.336 46.8984 172.543 45.8672 173.434 44.6484C174.348 43.4297 174.84 42.2461 174.91 41.0977L177.688 44.2266C177.523 45.2109 177.078 46.3008 176.352 47.4961C175.625 48.6914 174.652 49.8398 173.434 50.9414C172.238 52.0195 170.809 52.9219 169.145 53.6484C167.504 54.3516 165.652 54.7031 163.59 54.7031C161.012 54.7031 158.75 54.1992 156.805 53.1914C154.883 52.1836 153.383 50.8359 152.305 49.1484C151.25 47.4375 150.723 45.5273 150.723 43.418C150.723 41.3789 151.121 39.5859 151.918 38.0391C152.715 36.4688 153.863 35.168 155.363 34.1367C156.863 33.082 158.668 32.2852 160.777 31.7461C162.887 31.207 165.242 30.9375 167.844 30.9375H175.402ZM198.078 0V54H191.539V0H198.078ZM220.086 48.1289L230.492 15.9609H237.137L223.461 54H219.102L220.086 48.1289ZM211.402 15.9609L222.125 48.3047L222.863 54H218.504L204.723 15.9609H211.402ZM265.262 47.4961V27.9141C265.262 26.4141 264.957 25.1133 264.348 24.0117C263.762 22.8867 262.871 22.0195 261.676 21.4102C260.48 20.8008 259.004 20.4961 257.246 20.4961C255.605 20.4961 254.164 20.7773 252.922 21.3398C251.703 21.9023 250.742 22.6406 250.039 23.5547C249.359 24.4688 249.02 25.4531 249.02 26.5078H242.516C242.516 25.1484 242.867 23.8008 243.57 22.4648C244.273 21.1289 245.281 19.9219 246.594 18.8438C247.93 17.7422 249.523 16.875 251.375 16.2422C253.25 15.5859 255.336 15.2578 257.633 15.2578C260.398 15.2578 262.836 15.7266 264.945 16.6641C267.078 17.6016 268.742 19.0195 269.938 20.918C271.156 22.793 271.766 25.1484 271.766 27.9844V45.7031C271.766 46.9688 271.871 48.3164 272.082 49.7461C272.316 51.1758 272.656 52.4062 273.102 53.4375V54H266.316C265.988 53.25 265.73 52.2539 265.543 51.0117C265.355 49.7461 265.262 48.5742 265.262 47.4961ZM266.387 30.9375L266.457 35.5078H259.883C258.031 35.5078 256.379 35.6602 254.926 35.9648C253.473 36.2461 252.254 36.6797 251.27 37.2656C250.285 37.8516 249.535 38.5898 249.02 39.4805C248.504 40.3477 248.246 41.3672 248.246 42.5391C248.246 43.7344 248.516 44.8242 249.055 45.8086C249.594 46.793 250.402 47.5781 251.48 48.1641C252.582 48.7266 253.93 49.0078 255.523 49.0078C257.516 49.0078 259.273 48.5859 260.797 47.7422C262.32 46.8984 263.527 45.8672 264.418 44.6484C265.332 43.4297 265.824 42.2461 265.895 41.0977L268.672 44.2266C268.508 45.2109 268.062 46.3008 267.336 47.4961C266.609 48.6914 265.637 49.8398 264.418 50.9414C263.223 52.0195 261.793 52.9219 260.129 53.6484C258.488 54.3516 256.637 54.7031 254.574 54.7031C251.996 54.7031 249.734 54.1992 247.789 53.1914C245.867 52.1836 244.367 50.8359 243.289 49.1484C242.234 47.4375 241.707 45.5273 241.707 43.418C241.707 41.3789 242.105 39.5859 242.902 38.0391C243.699 36.4688 244.848 35.168 246.348 34.1367C247.848 33.082 249.652 32.2852 251.762 31.7461C253.871 31.207 256.227 30.9375 258.828 30.9375H266.387ZM288.5 21.9375V54H281.996V15.9609H288.324L288.5 21.9375ZM300.383 15.75L300.348 21.7969C299.809 21.6797 299.293 21.6094 298.801 21.5859C298.332 21.5391 297.793 21.5156 297.184 21.5156C295.684 21.5156 294.359 21.75 293.211 22.2188C292.062 22.6875 291.09 23.3438 290.293 24.1875C289.496 25.0312 288.863 26.0391 288.395 27.2109C287.949 28.3594 287.656 29.625 287.516 31.0078L285.688 32.0625C285.688 29.7656 285.91 27.6094 286.355 25.5938C286.824 23.5781 287.539 21.7969 288.5 20.25C289.461 18.6797 290.68 17.4609 292.156 16.5938C293.656 15.7031 295.438 15.2578 297.5 15.2578C297.969 15.2578 298.508 15.3164 299.117 15.4336C299.727 15.5273 300.148 15.6328 300.383 15.75ZM321.477 54.7031C318.828 54.7031 316.426 54.2578 314.27 53.3672C312.137 52.4531 310.297 51.1758 308.75 49.5352C307.227 47.8945 306.055 45.9492 305.234 43.6992C304.414 41.4492 304.004 38.9883 304.004 36.3164V34.8398C304.004 31.7461 304.461 28.9922 305.375 26.5781C306.289 24.1406 307.531 22.0781 309.102 20.3906C310.672 18.7031 312.453 17.4258 314.445 16.5586C316.438 15.6914 318.5 15.2578 320.633 15.2578C323.352 15.2578 325.695 15.7266 327.664 16.6641C329.656 17.6016 331.285 18.9141 332.551 20.6016C333.816 22.2656 334.754 24.2344 335.363 26.5078C335.973 28.7578 336.277 31.2188 336.277 33.8906V36.8086H307.871V31.5H329.773V31.0078C329.68 29.3203 329.328 27.6797 328.719 26.0859C328.133 24.4922 327.195 23.1797 325.906 22.1484C324.617 21.1172 322.859 20.6016 320.633 20.6016C319.156 20.6016 317.797 20.918 316.555 21.5508C315.312 22.1602 314.246 23.0742 313.355 24.293C312.465 25.5117 311.773 27 311.281 28.7578C310.789 30.5156 310.543 32.543 310.543 34.8398V36.3164C310.543 38.1211 310.789 39.8203 311.281 41.4141C311.797 42.9844 312.535 44.3672 313.496 45.5625C314.48 46.7578 315.664 47.6953 317.047 48.375C318.453 49.0547 320.047 49.3945 321.828 49.3945C324.125 49.3945 326.07 48.9258 327.664 47.9883C329.258 47.0508 330.652 45.7969 331.848 44.2266L335.785 47.3555C334.965 48.5977 333.922 49.7812 332.656 50.9062C331.391 52.0312 329.832 52.9453 327.98 53.6484C326.152 54.3516 323.984 54.7031 321.477 54.7031ZM372.207 48.6562V54H344.539V48.6562H372.207ZM371.188 20.5664L346.016 54H342.043V49.2188L367.039 15.9609H371.188V20.5664ZM368.305 15.9609V21.3398H342.324V15.9609H368.305Z" fill="#81D4FA"/>
</svg>
